<?xml version="1.0" standalone="no"?><!DOCTYPE svg PUBLIC "-//W3C//DTD SVG 1.1//EN" "http://www.w3.org/Graphics/SVG/1.1/DTD/svg11.dtd"><svg t="1588916763190" class="icon" viewBox="0 0 1024 1024" version="1.1" xmlns="http://www.w3.org/2000/svg" p-id="1582" xmlns:xlink="http://www.w3.org/1999/xlink" width="128" height="128"><defs><style type="text/css"></style></defs><path d="M476.16 102.4m51.2 0l-30.72 0q51.2 0 51.2 51.2l0 102.4q0 51.2-51.2 51.2l30.72 0q-51.2 0-51.2-51.2l0-102.4q0-51.2 51.2-51.2Z" fill="#E9E9E9" p-id="1583"></path><path d="M685.760604 139.359897m44.340501 25.6l-26.604301-15.36q44.340501 25.6 18.740501 69.9405l-51.2 88.681002q-25.6 44.340501-69.940501 18.7405l26.604301 15.36q-44.340501-25.6-18.740501-69.9405l51.2-88.681002q25.6-44.340501 69.940501-18.7405Z" fill="#989697" p-id="1584"></path><path d="M848.800103 276.168408m25.6 44.340501l-15.36-26.604301q25.6 44.340501-18.7405 69.940501l-88.681002 51.2q-44.340501 25.6-69.9405-18.740501l15.36 26.604301q-25.6-44.340501 18.7405-69.940501l88.681002-51.2q44.340501-25.6 69.9405 18.740501Z" fill="#9B999A" p-id="1585"></path><path d="M921.6 476.16m0 51.2l0-30.72q0 51.2-51.2 51.2l-102.4 0q-51.2 0-51.2-51.2l0 30.72q0-51.2 51.2-51.2l102.4 0q51.2 0 51.2 51.2Z" fill="#A3A1A2" p-id="1586"></path><path d="M884.640103 685.763902m-25.6 44.340501l15.36-26.6043q-25.6 44.340501-69.9405 18.7405l-88.681002-51.2q-44.340501-25.6-18.7405-69.9405l-15.36 26.6043q25.6-44.340501 69.9405-18.740501l88.681002 51.2q44.340501 25.6 18.7405 69.940501Z" fill="#ABA9AA" p-id="1587"></path><path d="M747.852913 848.800103m-44.340501 25.6l26.604301-15.36q-44.340501 25.6-69.940501-18.7405l-51.2-88.681002q-25.6-44.340501 18.740501-69.9405l-26.604301 15.36q44.340501-25.6 69.940501 18.7405l51.2 88.681002q25.6 44.340501-18.740501 69.9405Z" fill="#B2B2B2" p-id="1588"></path><path d="M547.84 921.6m-51.2 0l30.72 0q-51.2 0-51.2-51.2l0-102.4q0-51.2 51.2-51.2l-30.72 0q51.2 0 51.2 51.2l0 102.4q0 51.2-51.2 51.2Z" fill="#BAB8B9" p-id="1589"></path><path d="M338.223788 884.640103m-44.340501-25.6l26.604301 15.36q-44.340501-25.6-18.740501-69.9405l51.2-88.681002q25.6-44.340501 69.940501-18.7405l-26.604301-15.36q44.340501 25.6 18.740501 69.9405l-51.2 88.681002q-25.6 44.340501-69.940501 18.7405Z" fill="#C2C0C1" p-id="1590"></path><path d="M175.199897 747.840603m-25.6-44.3405l15.36 26.6043q-25.6-44.340501 18.7405-69.940501l88.681002-51.2q44.340501-25.6 69.9405 18.740501l-15.36-26.6043q25.6 44.340501-18.7405 69.9405l-88.681002 51.2q-44.340501 25.6-69.9405-18.7405Z" fill="#CBCBCB" p-id="1591"></path><path d="M102.4 547.84m0-51.2l0 30.72q0-51.2 51.2-51.2l102.4 0q51.2 0 51.2 51.2l0-30.72q0 51.2-51.2 51.2l-102.4 0q-51.2 0-51.2-51.2Z" fill="#D2D2D2" p-id="1592"></path><path d="M139.359897 338.245109m25.6-44.340501l-15.36 26.604301q25.6-44.340501 69.9405-18.740501l88.681002 51.2q44.340501 25.6 18.7405 69.940501l15.36-26.604301q-25.6 44.340501-69.9405 18.740501l-88.681002-51.2q-44.340501-25.6-18.7405-69.940501Z" fill="#DADADA" p-id="1593"></path><path d="M276.162695 175.199897m44.340501-25.6l-26.604301 15.36q44.340501-25.6 69.940501 18.7405l51.2 88.681002q25.6 44.340501-18.740501 69.9405l26.604301-15.36q-44.340501 25.6-69.940501-18.7405l-51.2-88.681002q-25.6-44.340501 18.740501-69.9405Z" fill="#E2E2E2" p-id="1594"></path></svg>